<svg id="Layer_1" data-name="Layer 1" xmlns="http://www.w3.org/2000/svg" viewBox="0 0 911.98 267.3"><defs><style>.cls-1{fill:#565555;}</style></defs><title>brightec_logo_2018_dark</title><path class="cls-1" d="M517,202.62h31.36V129.9c0-41.35-16.35-59-54.68-59-13,0-24.88,3.1-34.27,9l-1.53,1V18H426.55V202.62h31.36V126.75c0-25.84,22.81-27.85,29.8-27.85,19.18,0,29.32,10.72,29.32,31Z"/><path class="cls-1" d="M233.75,70.42h32.57V202.35H233.75Z"/><path class="cls-1" d="M892.52,162.14l-.71.72c-10.62,10.91-20.85,15.77-33.15,15.77-21.7,0-38.06-17.53-38.06-40.78v-.49c0-22.73,16.18-40.54,36.82-40.54,15.57,0,25,7.7,32.9,16l.74.78,20.16-21.5-.64-.69C896,75.64,879.65,68.6,857.67,68.6c-38.69,0-69,30.42-69,69.25v.49c0,38.42,30.1,68.52,68.52,68.52,28.12,0,43.16-12.55,54.16-24.82l.64-.71Z"/><path class="cls-1" d="M0,17.26v185s16.43,4,58.09,4c38,0,68.5-32.44,68.5-70.37,0-38.67-29.3-66.9-68-66.9a49.22,49.22,0,0,0-26,7.23V17.26ZM32.57,177V107.91c0-1,11.1-10.72,26.27-10.72,20.65,0,35.82,13.81,35.82,36.53v2.5C94.66,159.47,78.3,178,56.6,178,47,178,32.57,177,32.57,177Z"/><path class="cls-1" d="M348.29,68.42c-38.42,0-68.51,30.09-68.51,68.51v.49c0,38.84,30.31,69.26,69,69.26a65.85,65.85,0,0,0,26-5.05v.94c0,22.68-18.2,36.5-37.43,36.5-12.3,0-22.53-4.86-33.15-15.77l-.71-.72-19.46,19.19.64.72c11,12.27,26,24.81,54.16,24.81,38.42,0,68.52-30.1,68.52-68.51V75.42S374.81,68.42,348.29,68.42Zm.25,110c-20.65,0-36.82-17.8-36.82-40.53v-.5c0-23.25,16.36-40.78,38-40.78,9.16,0,26,2.57,26,2.57v68.87A39.53,39.53,0,0,1,348.54,178.45Z"/><path class="cls-1" d="M219,70.63c-1.65-.13-6.4-.21-8.29-.21a47.74,47.74,0,0,0-14.21,1.94,51.22,51.22,0,0,0-10.9,4.69,43.54,43.54,0,0,0-8.15,6.07,64.19,64.19,0,0,0-5.65,6.07l-.83-18.77H139.74V202.35h32.57V133.52a30.66,30.66,0,0,1,9.66-22.9,30.17,30.17,0,0,1,10.49-6.35,36.87,36.87,0,0,1,12.69-2.21c3.13,0,12.92-.08,13.81.14Z"/><path class="cls-1" d="M777.9,148.88a54.55,54.55,0,0,0,.71-9.14c0-35.52-22.68-71.34-66.66-71.34-25.5,0-45.14,14.1-56.14,35.77a71.69,71.69,0,0,0-8.15,33.58v.5a69.75,69.75,0,0,0,5.44,27.22c9.87,25.05,33.42,41.39,63.07,41.39,22.25,0,40.51-8.37,54.26-24.88l-19.62-19.22c-8.73,9-17.19,13.82-26.75,15.28a36.12,36.12,0,0,1-8.93,1.13c-.54,0-1.08,0-1.61,0-17-.75-31.17-13.31-35.6-30.24ZM713.52,96.14c.53,0,1.07,0,1.61,0s1.08,0,1.62,0c17,.75,27.85,13.31,32.51,30.24H677.84C682,109.45,696.51,96.89,713.52,96.14Z"/><path class="cls-1" d="M633.8,170.57c-12.06,6.58-14.1,6.32-19.12,6.32q-8.28,0-12-5.93t-3.73-17V97.4h36.78V70.91H598.94V31H566.38V158.19a82.68,82.68,0,0,0,2.2,19.74,38.88,38.88,0,0,0,7.32,15.31,33,33,0,0,0,13.38,9.8q8.29,3.45,20.15,3.45c7.68,0,20.23,0,38.28-13.53Z"/><circle class="cls-1" cx="250.03" cy="21.26" r="21.26"/></svg>